<svg width="14" height="14" viewBox="0 0 14 14" fill="none" xmlns="http://www.w3.org/2000/svg">
<path fill-rule="evenodd" clip-rule="evenodd" d="M3.18481 9.38005V3.18505C3.39481 1.96005 4.47981 1.05005 5.70481 1.05005H10.3948C11.8298 1.05005 12.9498 2.24005 12.9498 3.64005V6.79005C12.9498 8.05005 12.0398 9.13505 10.8148 9.34505L3.18481 9.38005Z" fill="#6691FF"/>
<path d="M10.815 9.3799C10.605 10.6049 9.55505 11.5149 8.29505 11.5149H3.60505L1.05005 12.9499V5.7399C1.05005 4.4799 1.96005 3.3949 3.18505 3.1849C3.32505 3.1499 3.46505 3.1499 3.60505 3.1499H8.29505C9.73005 3.1499 10.885 4.3399 10.85 5.7399V8.8899C10.85 9.0649 10.85 9.2399 10.815 9.3799Z" fill="#FFBB00"/>
<path d="M8.4 6.0376C8.64162 6.0376 8.8375 6.23347 8.8375 6.4751C8.8375 6.70162 8.66534 6.88793 8.44473 6.91034L8.4 6.9126H3.5C3.25838 6.9126 3.0625 6.71672 3.0625 6.4751C3.0625 6.24857 3.23466 6.06226 3.45527 6.03986L3.5 6.0376H8.4Z" fill="white"/>
<path d="M7.76997 8.13745C8.01159 8.13745 8.20747 8.33333 8.20747 8.57495C8.20747 8.80147 8.03531 8.98779 7.8147 9.01019L7.76997 9.01245H4.09497C3.85335 9.01245 3.65747 8.81658 3.65747 8.57495C3.65747 8.34843 3.82963 8.16211 4.05024 8.13971L4.09497 8.13745H7.76997Z" fill="white"/>
</svg>
